<?xml version="1.0" standalone="no"?>
<!DOCTYPE svg PUBLIC "-//W3C//DTD SVG 20010904//EN"
 "http://www.w3.org/TR/2001/REC-SVG-20010904/DTD/svg10.dtd">
<svg version="1.0" xmlns="http://www.w3.org/2000/svg"
 width="512.000000pt" height="512.000000pt" viewBox="0 0 512.000000 512.000000"
 preserveAspectRatio="xMidYMid meet">

<g transform="translate(0.000000,512.000000) scale(0.100000,-0.100000)"
fill="#000000" stroke="none">
<path d="M2925 4197 c-68 -23 -118 -54 -161 -99 -79 -84 -109 -164 -102 -280
17 -312 401 -456 623 -233 112 111 138 298 61 435 -34 62 -106 127 -170 156
-72 33 -187 42 -251 21z m188 -103 c64 -22 130 -82 157 -145 17 -42 21 -66 18
-118 -9 -151 -115 -252 -263 -252 -106 0 -196 55 -241 149 -29 59 -30 158 -4
221 55 126 201 190 333 145z"/>
<path d="M2994 4010 c-73 -16 -128 -73 -140 -146 -8 -55 21 -122 72 -160 32
-25 47 -29 99 -29 52 0 67 4 99 29 51 38 80 105 72 160 -16 96 -111 165 -202
146z"/>
<path d="M2030 3999 c-62 -25 -102 -88 -102 -160 0 -141 163 -217 276 -128 77
60 79 187 4 256 -44 41 -120 55 -178 32z"/>
<path d="M2250 3095 l0 -205 310 0 310 0 0 205 0 205 -310 0 -310 0 0 -205z"/>
<path d="M900 2724 c0 -271 6 -316 57 -398 84 -136 199 -196 375 -196 l98 0 0
105 0 105 -80 0 c-121 0 -183 33 -221 115 -16 35 -19 68 -19 280 l0 240 -105
0 -105 0 0 -251z"/>
<path d="M4010 2735 c0 -211 -3 -245 -19 -280 -37 -82 -102 -115 -228 -115
l-73 0 0 -105 0 -105 98 0 c150 0 236 34 324 128 98 105 108 145 108 462 l0
255 -105 0 -105 0 0 -240z"/>
<path d="M1900 1579 l0 -151 33 9 c17 4 61 8 97 8 36 0 80 -4 98 -8 l32 -9 0
151 0 151 -130 0 -130 0 0 -151z"/>
<path d="M2960 1579 l0 -151 43 9 c23 4 62 8 87 8 25 0 64 -4 88 -8 l42 -9 0
151 0 151 -130 0 -130 0 0 -151z"/>
</g>
</svg>
