<?xml version="1.0" standalone="no"?>
<!DOCTYPE svg PUBLIC "-//W3C//DTD SVG 20010904//EN"
 "http://www.w3.org/TR/2001/REC-SVG-20010904/DTD/svg10.dtd">
<svg version="1.0" xmlns="http://www.w3.org/2000/svg"
 width="512.000000pt" height="512.000000pt" viewBox="0 0 512.000000 512.000000"
 preserveAspectRatio="xMidYMid meet">

<g transform="translate(0.000000,512.000000) scale(0.100000,-0.100000)"
fill="#000000" stroke="none">
<path d="M2405 5109 c-987 -56 -1862 -696 -2228 -1629 -175 -447 -217 -967
-117 -1448 203 -974 997 -1769 1970 -1971 338 -71 722 -71 1057 -1 648 135
1235 537 1609 1101 129 194 257 474 324 705 104 364 121 820 44 1204 -97 480
-347 943 -702 1297 -522 520 -1219 784 -1957 742z m355 -898 c291 -102 483
-395 483 -736 0 -341 -191 -632 -483 -737 -56 -20 -84 -23 -200 -23 -121 0
-142 3 -207 26 -254 93 -438 342 -473 640 -34 297 98 599 329 753 73 49 96 60
186 87 87 27 275 22 365 -10z m719 -1726 c196 -47 368 -200 448 -400 l28 -70
3 -362 3 -363 -25 -25 -25 -25 -1351 0 -1351 0 -24 25 -25 24 0 338 c0 377 3
402 66 529 77 156 241 287 411 328 89 22 1750 22 1842 1z"/>
</g>
</svg>
